<?xml version="1.0" encoding="UTF-8" standalone="no"?>
<!-- Created with Inkscape (http://www.inkscape.org/) -->

<svg
   version="1.1"
   id="svg2"
   width="766.89331"
   height="155.84"
   viewBox="0 0 766.89331 155.84"
   sodipodi:docname="dalarnashjalpmedelcenter_svart.eps"
   xmlns:inkscape="http://www.inkscape.org/namespaces/inkscape"
   xmlns:sodipodi="http://sodipodi.sourceforge.net/DTD/sodipodi-0.dtd"
   xmlns="http://www.w3.org/2000/svg"
   xmlns:svg="http://www.w3.org/2000/svg">
  <defs
     id="defs6" />
  <sodipodi:namedview
     id="namedview4"
     pagecolor="#ffffff"
     bordercolor="#000000"
     borderopacity="0.25"
     inkscape:showpageshadow="2"
     inkscape:pageopacity="0.0"
     inkscape:pagecheckerboard="0"
     inkscape:deskcolor="#d1d1d1" />
  <g
     id="g8"
     inkscape:groupmode="layer"
     inkscape:label="ink_ext_XXXXXX"
     transform="matrix(1.3333333,0,0,-1.3333333,0,155.84)">
    <g
       id="g10"
       transform="scale(0.1)">
      <path
         d="M 0,0 H 5751.71 V 1168.83 H 0 V 0"
         style="fill:#231f20;fill-opacity:1;fill-rule:nonzero;stroke:none"
         id="path12" />
      <path
         d="m 5285.11,329.25 h -31.63 V 207.375 h 31.63 v 74.617 h 0.35 l 57.96,-74.617 h 31.68 V 329.25 h -31.68 v -74.402 h -0.26 z m -32.53,94.414 c 0,-21.082 -15.51,-36.355 -34.43,-36.355 -18.92,0 -34.37,15.273 -34.37,36.355 0,16.758 15.45,32.141 34.37,32.141 18.92,0 34.43,-15.383 34.43,-32.141 m 32.96,0.156 c 0,36.817 -32.32,62.676 -67.39,62.676 -35.02,0 -67.36,-25.859 -67.36,-62.676 0,-39.441 28.28,-67.207 67.36,-67.207 39.09,0 67.39,27.766 67.39,67.207 M 5179.07,304.973 c 10.33,0 21.98,-1.895 21.98,-15.215 0,-13.211 -11.65,-15.164 -21.98,-15.164 h -3.06 v 30.379 z m 12.6,24.277 h -47.33 V 207.375 h 31.67 v 46.902 h 0.28 l 29.98,-46.902 h 39.35 l -38.27,49.883 c 17.28,3.183 26.66,17.746 26.66,34.406 0,26.063 -18.28,37.586 -42.34,37.586 m -130.36,-76.465 13.07,38.723 h 0.36 l 12.95,-38.723 z m -3.91,76.465 -46.84,-121.875 h 33.63 l 8.38,21.238 h 43.6 l 7.98,-21.238 h 33.78 l -45.87,121.875 z m 48.29,31.367 h 31.7 v 121.817 h -31.7 z m -76.27,43.145 h 25.87 c -1.38,-14.043 -11.85,-21.192 -25.55,-21.192 -20.83,0 -32.19,19.285 -32.19,38.164 0,18.614 10.85,38.457 31.67,38.457 12.78,0 21.96,-7.714 26.36,-19.375 l 30.05,12.598 c -10.48,22.774 -29.93,34.082 -54.97,34.082 -39.23,0 -66.02,-25.957 -66.02,-65.664 0,-38.262 26.58,-64.219 64.94,-64.219 20.34,0 38.26,7.246 50.24,23.907 10.81,15.117 12.14,30.332 12.45,48.125 h -62.85 z m -63.01,-74.512 h -31.65 V 207.375 h 69.62 v 26.848 h -37.97 z m -195.07,-60.937 c 0,-23.809 -16.15,-34.09 -35.07,-34.09 h -7.05 v 68.191 h 7.35 c 20.39,0 34.77,-12.297 34.77,-34.101 m -28.91,60.937 h -44.91 V 207.375 h 44.91 c 33.79,0 61.84,26.688 61.84,60.938 0,34.246 -27.94,60.937 -61.84,60.937 m 88.66,113.801 c 0,-13.324 -11.68,-15.227 -22.01,-15.227 H 4806 v 30.449 h 3.08 c 10.33,0 22.01,-2.011 22.01,-15.222 m 44.55,-82.434 -38.33,49.883 c 17.33,3.137 26.74,17.637 26.74,34.504 0,26.023 -18.31,37.488 -42.34,37.488 h -47.39 V 360.617 H 4806 v 46.895 h 0.33 l 29.9,-46.895 z m 0.49,-107.832 h -26.37 l 13.11,38.723 h 0.3 z m 50.2,-45.41 -45.82,121.875 h -34.58 L 4799.1,207.375 h 33.53 l 8.43,21.238 h 43.61 l 7.92,-21.238 z m 26.58,275.117 h -69.27 V 360.617 h 69.27 v 26.848 h -37.64 v 21.023 h 35.69 v 26.739 h -35.69 v 20.418 h 37.64 z M 5341,830.129 c 9.44,7.785 17.13,17.605 22.4,28.586 l -43.13,81.328 v 43.094 l -38.45,-22.149 c -7.83,1.426 -15.87,2.168 -24.08,2.168 -50.05,0 -93.48,-27.968 -115.62,-69.187 l -22.65,-43.762 -106.71,-3.984 c -38.92,-2.11 -69.88,-33.887 -70.65,-73.157 L 4942.01,528 h 44.53 c 0,91.836 32.63,138.547 32.63,138.547 27.23,-3.195 54.94,-4.777 83.02,-4.777 30.34,0 60.16,1.894 89.48,5.546 L 5208.58,528 h 44.49 c 0,238.047 46.07,312.07 46.07,312.07 z m 48.82,-469.512 h 31.71 v 121.875 h -31.71 v -74.57 h -0.33 l -57.95,74.57 h -31.71 V 360.617 h 31.71 v 74.61 h 0.31 z m 69.1,-107.832 h -26.33 l 13.08,38.723 h 0.31 z m 50.29,-45.41 -45.9,121.875 h -34.58 l -46.85,-121.875 h 33.63 l 8.41,21.238 h 43.58 l 7.89,-21.238 h 33.82"
         style="fill:#ffffff;fill-opacity:1;fill-rule:nonzero;stroke:none"
         id="path14" />
      <path
         d="m 4557.47,121.238 h 18.36 v 926.352 h -18.36 V 121.238"
         style="fill:#ffffff;fill-opacity:1;fill-rule:nonzero;stroke:none"
         id="path16" />
      <path
         d="m 2319.9,736.77 h 17.15 c 45.64,0 84.64,24.96 84.64,82.304 0,52.649 -34.72,82.285 -83.86,82.285 h -17.93 z m -76.44,229.335 h 108.42 c 81.9,0 149.37,-64.355 149.37,-147.031 0,-82.695 -67.86,-147.043 -149.37,-147.043 h -108.42 v 294.074"
         style="fill:#ffffff;fill-opacity:1;fill-rule:nonzero;stroke:none"
         id="path18" />
      <path
         d="m 2646.76,875.227 h -0.78 l -31.6,-93.594 h 63.58 z m -53.44,-152.098 -20.27,-51.098 h -81.14 l 113.11,294.074 h 83.48 l 110.76,-294.074 h -81.53 l -19.1,51.098 h -105.31"
         style="fill:#ffffff;fill-opacity:1;fill-rule:nonzero;stroke:none"
         id="path20" />
      <path
         d="m 2894.94,736.77 h 91.66 v -64.739 h -168.1 v 294.074 h 76.44 V 736.77"
         style="fill:#ffffff;fill-opacity:1;fill-rule:nonzero;stroke:none"
         id="path22" />
      <path
         d="m 3148.37,875.227 h -0.78 L 3116,781.633 h 63.57 z m -53.43,-152.098 -20.29,-51.098 h -81.11 l 113.1,294.074 h 83.46 l 110.76,-294.074 h -81.5 l -19.13,51.098 h -105.29"
         style="fill:#ffffff;fill-opacity:1;fill-rule:nonzero;stroke:none"
         id="path24" />
      <path
         d="m 3396.56,834.277 h 7.4 c 24.97,0 53.05,4.68 53.05,36.661 0,31.984 -28.08,36.664 -53.05,36.664 h -7.4 z m 168.1,-162.246 h -95.17 l -72.15,113.11 h -0.78 v -113.11 h -76.44 v 294.074 h 114.27 c 58.11,0 102.19,-27.695 102.19,-90.488 0,-40.558 -22.62,-75.664 -64.35,-83.066 l 92.43,-120.52"
         style="fill:#ffffff;fill-opacity:1;fill-rule:nonzero;stroke:none"
         id="path26" />
      <path
         d="m 3582.19,966.105 h 76.44 l 140.02,-179.804 h 0.78 v 179.804 h 76.45 V 672.031 h -76.45 l -140.02,180.188 h -0.78 V 672.031 h -76.44 v 294.074"
         style="fill:#ffffff;fill-opacity:1;fill-rule:nonzero;stroke:none"
         id="path28" />
      <path
         d="m 4049.96,875.227 h -0.78 l -31.59,-93.594 h 63.57 z m -53.44,-152.098 -20.27,-51.098 h -81.13 l 113.1,294.074 h 83.48 l 110.76,-294.074 h -81.52 l -19.1,51.098 h -105.32"
         style="fill:#ffffff;fill-opacity:1;fill-rule:nonzero;stroke:none"
         id="path30" />
      <path
         d="m 4386.25,890.441 c -14.03,11.7 -31.97,19.5 -50.7,19.5 -14.04,0 -32.76,-8.191 -32.76,-24.566 0,-17.16 20.67,-23.801 33.93,-28.078 l 19.51,-5.859 c 40.95,-12.09 72.54,-32.754 72.54,-80.34 0,-29.25 -7.02,-59.289 -30.43,-79.172 -23.01,-19.5 -53.81,-27.696 -83.46,-27.696 -37.05,0 -73.32,12.481 -103.36,33.543 l 32.78,61.622 c 19.1,-16.766 41.72,-30.418 67.85,-30.418 17.95,0 37.05,8.964 37.05,29.636 0,21.457 -30.02,28.86 -46.41,33.547 -47.97,13.653 -79.57,26.133 -79.57,83.067 0,59.675 42.52,98.671 101.41,98.671 29.65,0 65.92,-9.355 92.05,-24.179 l -30.43,-59.278"
         style="fill:#ffffff;fill-opacity:1;fill-rule:nonzero;stroke:none"
         id="path32" />
      <path
         d="m 430.188,384.609 v 113.496 h 76.445 V 204.035 H 430.188 V 324.543 H 319.809 V 204.035 h -76.442 v 294.07 h 76.442 V 384.609 h 110.379"
         style="fill:#ffffff;fill-opacity:1;fill-rule:nonzero;stroke:none"
         id="path34" />
      <path
         d="M 697.016,498.105 V 299.582 c 0,-62.012 -32.368,-103.352 -97.5,-103.352 -32.762,0 -58.114,16.379 -75.664,43.293 l 44.074,46.415 c 8.578,-11.7 20.668,-24.961 30.808,-24.961 22.621,0 21.84,26.906 21.84,43.293 v 193.835 h 76.442"
         style="fill:#ffffff;fill-opacity:1;fill-rule:nonzero;stroke:none"
         id="path36" />
      <path
         d="m 945.414,560.117 c 0,-21.453 -17.16,-38.222 -38.223,-38.222 -21.449,0 -38.613,16.769 -38.613,38.222 0,21.067 17.164,38.227 38.613,38.227 21.063,0 38.223,-17.16 38.223,-38.227 z M 858.051,407.238 h -0.781 l -31.59,-93.613 h 63.574 z M 845.57,560.117 c 0,-21.453 -17.164,-38.222 -38.222,-38.222 -21.45,0 -38.614,16.769 -38.614,38.222 0,21.067 17.164,38.227 38.614,38.227 21.058,0 38.222,-17.16 38.222,-38.227 z M 804.617,255.129 784.34,204.035 h -81.121 l 113.097,294.07 h 83.465 l 110.769,-294.07 h -81.519 l -19.109,51.094 H 804.617"
         style="fill:#ffffff;fill-opacity:1;fill-rule:nonzero;stroke:none"
         id="path38" />
      <path
         d="m 1106.25,268.781 h 91.64 V 204.035 H 1029.8 v 294.07 h 76.45 V 268.781"
         style="fill:#ffffff;fill-opacity:1;fill-rule:nonzero;stroke:none"
         id="path40" />
      <path
         d="m 1293.75,363.156 h 12.87 c 27.7,0 55,0 55,35.891 0,37.051 -25.35,37.437 -55,37.437 h -12.87 z m -76.45,134.949 h 117.02 c 63.18,0 106.85,-29.246 106.85,-96.726 0,-69.414 -37.44,-99.844 -104.12,-99.844 h -43.3 v -97.5 h -76.45 v 294.07"
         style="fill:#ffffff;fill-opacity:1;fill-rule:nonzero;stroke:none"
         id="path42" />
      <path
         d="m 1491.56,498.105 h 75.28 l 59.66,-157.175 63.19,157.175 h 76.05 l 44.46,-294.07 h -76.45 l -21.45,169.27 h -0.78 l -70.58,-169.27 h -30.43 l -67.47,169.27 h -0.78 l -24.57,-169.27 h -76.05 l 49.92,294.07"
         style="fill:#ffffff;fill-opacity:1;fill-rule:nonzero;stroke:none"
         id="path44" />
      <path
         d="m 1917.17,433.359 v -49.136 h 86.19 v -64.739 h -86.19 v -50.703 h 90.86 v -64.746 h -167.31 v 294.07 h 167.31 v -64.746 h -90.86"
         style="fill:#ffffff;fill-opacity:1;fill-rule:nonzero;stroke:none"
         id="path46" />
      <path
         d="m 2128.81,268.781 h 17.16 c 45.63,0 84.64,24.961 84.64,82.285 0,52.657 -34.72,82.293 -83.86,82.293 h -17.94 z m -76.45,229.324 h 108.42 c 81.92,0 149.38,-64.351 149.38,-147.039 0,-82.675 -67.86,-147.031 -149.38,-147.031 h -108.42 v 294.07"
         style="fill:#ffffff;fill-opacity:1;fill-rule:nonzero;stroke:none"
         id="path48" />
      <path
         d="m 2418.42,433.359 v -49.136 h 86.19 v -64.739 h -86.19 v -50.703 h 90.88 v -64.746 h -167.33 v 294.07 h 167.33 v -64.746 h -90.88"
         style="fill:#ffffff;fill-opacity:1;fill-rule:nonzero;stroke:none"
         id="path50" />
      <path
         d="m 2630.08,268.781 h 91.64 v -64.746 h -168.09 v 294.07 h 76.45 V 268.781"
         style="fill:#ffffff;fill-opacity:1;fill-rule:nonzero;stroke:none"
         id="path52" />
      <path
         d="m 2909.5,422.441 c -14.03,11.7 -31.98,19.504 -50.69,19.504 -14.04,0 -32.77,-8.191 -32.77,-24.57 0,-17.168 20.67,-23.789 33.93,-28.086 l 19.5,-5.851 c 40.96,-12.086 72.54,-32.762 72.54,-80.34 0,-29.246 -7.01,-59.278 -30.42,-79.168 -23.01,-19.504 -53.82,-27.7 -83.46,-27.7 -37.06,0 -73.33,12.485 -103.35,33.547 l 32.76,61.621 c 19.11,-16.777 41.73,-30.421 67.86,-30.421 17.94,0 37.05,8.976 37.05,29.64 0,21.446 -30.03,28.867 -46.41,33.547 -47.97,13.641 -79.56,26.121 -79.56,83.074 0,59.668 42.5,98.672 101.4,98.672 29.64,0 65.91,-9.363 92.04,-24.18 l -30.42,-59.289"
         style="fill:#ffffff;fill-opacity:1;fill-rule:nonzero;stroke:none"
         id="path54" />
      <path
         d="m 3193.54,399.426 c -15.59,21.074 -40.94,32.383 -67.08,32.383 -46.8,0 -78.39,-35.887 -78.39,-81.524 0,-46.406 31.98,-79.941 79.57,-79.941 24.96,0 49.92,12.09 65.9,31.191 v -91.648 c -25.35,-7.805 -43.68,-13.657 -67.47,-13.657 -40.95,0 -79.96,15.61 -110.37,43.293 -32.38,29.258 -47.19,67.481 -47.19,111.153 0,40.176 15.2,78.789 43.29,107.644 28.86,29.641 70.58,47.59 111.93,47.59 24.57,0 47.19,-5.469 69.81,-14.824 v -91.66"
         style="fill:#ffffff;fill-opacity:1;fill-rule:nonzero;stroke:none"
         id="path56" />
      <path
         d="m 3314.86,433.359 v -49.136 h 86.19 v -64.739 h -86.19 v -50.703 h 90.87 v -64.746 h -167.31 v 294.07 h 167.31 v -64.746 h -90.87"
         style="fill:#ffffff;fill-opacity:1;fill-rule:nonzero;stroke:none"
         id="path58" />
      <path
         d="m 3450.07,498.105 h 76.43 l 140.02,-179.792 h 0.78 v 179.792 h 76.45 v -294.07 h -76.45 l -140.01,180.188 h -0.79 V 204.035 h -76.43 v 294.07"
         style="fill:#ffffff;fill-opacity:1;fill-rule:nonzero;stroke:none"
         id="path60" />
      <path
         d="m 3904.3,204.035 h -76.44 v 229.324 h -63.18 v 64.746 h 202.8 V 433.359 H 3904.3 V 204.035"
         style="fill:#ffffff;fill-opacity:1;fill-rule:nonzero;stroke:none"
         id="path62" />
      <path
         d="m 4064.63,433.359 v -49.136 h 86.19 v -64.739 h -86.19 v -50.703 h 90.87 v -64.746 h -167.32 v 294.07 h 167.32 v -64.746 h -90.87"
         style="fill:#ffffff;fill-opacity:1;fill-rule:nonzero;stroke:none"
         id="path64" />
      <path
         d="m 4276.27,366.281 h 7.42 c 24.96,0 53.04,4.68 53.04,36.66 0,31.985 -28.08,36.661 -53.04,36.661 h -7.42 z m 168.11,-162.246 h -95.17 l -72.16,113.106 h -0.78 V 204.035 h -76.44 v 294.07 h 114.27 c 58.13,0 102.19,-27.683 102.19,-90.476 0,-40.566 -22.62,-75.664 -64.36,-83.086 l 92.45,-120.508"
         style="fill:#ffffff;fill-opacity:1;fill-rule:nonzero;stroke:none"
         id="path66" />
    </g>
  </g>
</svg>
