<?xml version="1.0" encoding="UTF-8" standalone="no"?>
<!-- Created with Inkscape (http://www.inkscape.org/) -->

<svg
   version="1.1"
   id="svg2"
   width="702.10669"
   height="123.50667"
   viewBox="0 0 702.10669 123.50667"
   sodipodi:docname="dalarnashjalpmedelcenter_fri_vit.eps"
   xmlns:inkscape="http://www.inkscape.org/namespaces/inkscape"
   xmlns:sodipodi="http://sodipodi.sourceforge.net/DTD/sodipodi-0.dtd"
   xmlns="http://www.w3.org/2000/svg"
   xmlns:svg="http://www.w3.org/2000/svg">
  <defs
     id="defs6" />
  <sodipodi:namedview
     id="namedview4"
     pagecolor="#ffffff"
     bordercolor="#000000"
     borderopacity="0.25"
     inkscape:showpageshadow="2"
     inkscape:pageopacity="0.0"
     inkscape:pagecheckerboard="0"
     inkscape:deskcolor="#d1d1d1" />
  <g
     id="g8"
     inkscape:groupmode="layer"
     inkscape:label="ink_ext_XXXXXX"
     transform="matrix(1.3333333,0,0,-1.3333333,0,123.50667)">
    <g
       id="g10"
       transform="scale(0.1)">
      <path
         d="m 5041.74,208.008 h -31.63 V 86.1328 h 31.63 v 74.6212 h 0.35 l 57.96,-74.6212 h 31.68 V 208.008 h -31.68 v -74.403 h -0.26 z m -32.53,94.414 c 0,-21.082 -15.51,-36.356 -34.42,-36.356 -18.93,0 -34.38,15.274 -34.38,36.356 0,16.758 15.45,32.141 34.38,32.141 18.91,0 34.42,-15.383 34.42,-32.141 m 32.96,0.156 c 0,36.817 -32.32,62.676 -67.38,62.676 -35.02,0 -67.37,-25.859 -67.37,-62.676 0,-39.441 28.28,-67.207 67.37,-67.207 39.08,0 67.38,27.766 67.38,67.207 M 4935.7,183.73 c 10.34,0 21.99,-1.894 21.99,-15.214 0,-13.211 -11.65,-15.164 -21.99,-15.164 h -3.06 v 30.378 z m 12.6,24.278 h -47.33 V 86.1328 h 31.67 v 46.9022 h 0.28 l 29.98,-46.9022 h 39.35 l -38.27,49.8832 c 17.28,3.183 26.66,17.746 26.66,34.406 0,26.062 -18.28,37.586 -42.34,37.586 m -130.36,-76.465 13.07,38.723 h 0.36 l 12.95,-38.723 z m -3.91,76.465 -46.84,-121.8752 h 33.63 l 8.38,21.2422 h 43.6 l 7.98,-21.2422 h 33.78 l -45.87,121.8752 z m 48.29,31.367 h 31.7 v 121.816 h -31.7 z m -76.27,43.145 h 25.87 c -1.38,-14.043 -11.85,-21.192 -25.55,-21.192 -20.83,0 -32.19,19.289 -32.19,38.164 0,18.613 10.85,38.457 31.67,38.457 12.78,0 21.96,-7.715 26.36,-19.375 l 30.06,12.598 c -10.49,22.773 -29.94,34.082 -54.98,34.082 -39.23,0 -66.02,-25.957 -66.02,-65.664 0,-38.262 26.58,-64.219 64.94,-64.219 20.34,0 38.26,7.246 50.25,23.906 10.8,15.118 12.13,30.332 12.44,48.125 h -62.85 z m -63.01,-74.512 h -31.65 V 86.1328 h 69.63 V 112.98 h -37.98 z M 4527.97,147.07 c 0,-23.808 -16.15,-34.09 -35.07,-34.09 h -7.05 v 68.192 h 7.35 c 20.39,0 34.77,-12.293 34.77,-34.102 m -28.91,60.938 h -44.91 V 86.1328 h 44.91 c 33.79,0 61.84,26.6912 61.84,60.9372 0,34.25 -27.94,60.938 -61.84,60.938 m 88.66,113.801 c 0,-13.321 -11.68,-15.227 -22.01,-15.227 h -3.08 v 30.449 h 3.08 c 10.33,0 22.01,-2.011 22.01,-15.222 m 44.56,-82.434 -38.33,49.883 c 17.32,3.137 26.73,17.637 26.73,34.504 0,26.023 -18.31,37.488 -42.34,37.488 h -47.39 V 239.375 h 31.68 v 46.895 h 0.33 l 29.9,-46.895 z m 0.48,-107.832 h -26.37 l 13.11,38.723 h 0.3 z m 50.2,-45.4102 -45.82,121.8752 h -34.58 L 4555.73,86.1328 h 33.53 l 8.44,21.2422 h 43.6 l 7.92,-21.2422 z m 26.58,275.1172 h -69.27 V 239.375 h 69.27 v 26.848 h -37.64 v 21.023 h 35.69 v 26.738 h -35.69 v 20.422 h 37.64 z m 388.09,347.637 c 9.44,7.785 17.13,17.605 22.4,28.586 l -43.13,81.328 v 43.094 l -38.45,-22.149 c -7.82,1.426 -15.87,2.168 -24.07,2.168 -50.06,0 -93.49,-27.969 -115.63,-69.187 l -22.65,-43.762 -106.71,-3.985 c -38.92,-2.109 -69.88,-33.886 -70.65,-73.152 l -0.1,-245.07 h 44.53 c 0,91.836 32.63,138.547 32.63,138.547 27.23,-3.196 54.94,-4.778 83.02,-4.778 30.34,0 60.16,1.895 89.48,5.547 l 16.91,-139.316 h 44.49 c 0,238.047 46.07,312.07 46.07,312.07 z m 48.83,-469.512 h 31.7 V 361.25 h -31.7 v -74.57 h -0.34 l -57.95,74.57 h -31.71 V 239.375 h 31.71 v 74.609 h 0.31 z m 69.09,-107.832 h -26.33 l 13.08,38.723 h 0.31 z m 50.29,-45.4102 -45.9,121.8752 h -34.58 L 5138.52,86.1328 h 33.62 l 8.41,21.2422 h 43.58 l 7.89,-21.2422 h 33.82"
         style="fill:#ffffff;fill-opacity:1;fill-rule:nonzero;stroke:none"
         id="path12" />
      <path
         d="m 4314.1,0 h 18.36 V 926.348 H 4314.1 V 0"
         style="fill:#ffffff;fill-opacity:1;fill-rule:nonzero;stroke:none"
         id="path14" />
      <path
         d="m 2076.53,615.527 h 17.15 c 45.64,0 84.64,24.961 84.64,82.305 0,52.648 -34.72,82.285 -83.86,82.285 h -17.93 z m -76.44,229.336 h 108.42 c 81.9,0 149.37,-64.355 149.37,-147.031 0,-82.695 -67.86,-147.039 -149.37,-147.039 h -108.42 v 294.07"
         style="fill:#ffffff;fill-opacity:1;fill-rule:nonzero;stroke:none"
         id="path16" />
      <path
         d="m 2403.39,753.984 h -0.78 l -31.59,-93.593 h 63.57 z m -53.44,-152.097 -20.27,-51.094 h -81.14 l 113.11,294.07 h 83.48 l 110.76,-294.07 h -81.52 l -19.11,51.094 h -105.31"
         style="fill:#ffffff;fill-opacity:1;fill-rule:nonzero;stroke:none"
         id="path18" />
      <path
         d="m 2651.57,615.527 h 91.66 v -64.734 h -168.1 v 294.07 h 76.44 V 615.527"
         style="fill:#ffffff;fill-opacity:1;fill-rule:nonzero;stroke:none"
         id="path20" />
      <path
         d="m 2905,753.984 h -0.78 l -31.59,-93.593 h 63.57 z m -53.43,-152.097 -20.29,-51.094 h -81.11 l 113.1,294.07 h 83.46 l 110.76,-294.07 h -81.5 l -19.12,51.094 h -105.3"
         style="fill:#ffffff;fill-opacity:1;fill-rule:nonzero;stroke:none"
         id="path22" />
      <path
         d="m 3153.19,713.035 h 7.41 c 24.96,0 53.04,4.68 53.04,36.664 0,31.981 -28.08,36.66 -53.04,36.66 h -7.41 z m 168.1,-162.242 h -95.17 l -72.15,113.105 h -0.78 V 550.793 h -76.44 v 294.07 h 114.28 c 58.1,0 102.18,-27.695 102.18,-90.488 0,-40.555 -22.62,-75.664 -64.35,-83.066 l 92.43,-120.516"
         style="fill:#ffffff;fill-opacity:1;fill-rule:nonzero;stroke:none"
         id="path24" />
      <path
         d="m 3338.82,844.863 h 76.44 l 140.02,-179.804 h 0.78 v 179.804 h 76.45 v -294.07 h -76.45 l -140.02,180.184 h -0.78 V 550.793 h -76.44 v 294.07"
         style="fill:#ffffff;fill-opacity:1;fill-rule:nonzero;stroke:none"
         id="path26" />
      <path
         d="m 3806.59,753.984 h -0.78 l -31.59,-93.593 h 63.57 z m -53.44,-152.097 -20.27,-51.094 h -81.13 l 113.1,294.07 h 83.48 l 110.76,-294.07 h -81.52 l -19.1,51.094 h -105.32"
         style="fill:#ffffff;fill-opacity:1;fill-rule:nonzero;stroke:none"
         id="path28" />
      <path
         d="m 4142.88,769.199 c -14.03,11.699 -31.97,19.504 -50.7,19.504 -14.04,0 -32.76,-8.195 -32.76,-24.57 0,-17.16 20.67,-23.801 33.93,-28.078 l 19.51,-5.86 c 40.95,-12.09 72.54,-32.754 72.54,-80.34 0,-29.25 -7.02,-59.289 -30.43,-79.171 -23.01,-19.5 -53.81,-27.696 -83.46,-27.696 -37.05,0 -73.32,12.481 -103.36,33.547 l 32.78,61.621 c 19.1,-16.769 41.72,-30.422 67.85,-30.422 17.95,0 37.05,8.965 37.05,29.641 0,21.453 -30.02,28.855 -46.41,33.543 -47.96,13.652 -79.57,26.133 -79.57,83.066 0,59.676 42.52,98.672 101.41,98.672 29.65,0 65.92,-9.355 92.05,-24.179 l -30.43,-59.278"
         style="fill:#ffffff;fill-opacity:1;fill-rule:nonzero;stroke:none"
         id="path30" />
      <path
         d="m 186.816,263.367 v 113.5 h 76.446 V 82.793 H 186.816 V 203.301 H 76.4414 V 82.793 H 0 v 294.074 h 76.4414 v -113.5 H 186.816"
         style="fill:#ffffff;fill-opacity:1;fill-rule:nonzero;stroke:none"
         id="path32" />
      <path
         d="M 453.648,376.867 V 178.34 c 0,-62.012 -32.371,-103.3478 -97.5,-103.3478 -32.765,0 -58.117,16.375 -75.664,43.2888 l 44.071,46.418 c 8.582,-11.699 20.672,-24.961 30.812,-24.961 22.621,0 21.84,26.903 21.84,43.289 v 193.84 h 76.441"
         style="fill:#ffffff;fill-opacity:1;fill-rule:nonzero;stroke:none"
         id="path34" />
      <path
         d="m 702.047,438.879 c 0,-21.457 -17.164,-38.223 -38.223,-38.223 -21.453,0 -38.613,16.766 -38.613,38.223 0,21.062 17.16,38.223 38.613,38.223 21.059,0 38.223,-17.161 38.223,-38.223 z M 614.684,285.996 h -0.782 l -31.593,-93.613 h 63.574 z m -12.481,152.883 c 0,-21.457 -17.164,-38.223 -38.223,-38.223 -21.453,0 -38.613,16.766 -38.613,38.223 0,21.062 17.16,38.223 38.613,38.223 21.059,0 38.223,-17.161 38.223,-38.223 z M 561.25,133.887 540.973,82.793 H 459.848 L 572.949,376.867 H 656.41 L 767.18,82.793 h -81.516 l -19.109,51.094 H 561.25"
         style="fill:#ffffff;fill-opacity:1;fill-rule:nonzero;stroke:none"
         id="path36" />
      <path
         d="M 862.875,147.539 H 954.52 V 82.793 H 786.43 v 294.074 h 76.445 V 147.539"
         style="fill:#ffffff;fill-opacity:1;fill-rule:nonzero;stroke:none"
         id="path38" />
      <path
         d="m 1050.38,241.914 h 12.87 c 27.7,0 55,0 55,35.891 0,37.05 -25.35,37.437 -55,37.437 h -12.87 z m -76.442,134.953 h 117.012 c 63.18,0 106.85,-29.25 106.85,-96.73 0,-69.414 -37.44,-99.844 -104.12,-99.844 h -43.3 v -97.5 h -76.442 v 294.074"
         style="fill:#ffffff;fill-opacity:1;fill-rule:nonzero;stroke:none"
         id="path40" />
      <path
         d="m 1248.19,376.867 h 75.28 l 59.66,-157.179 63.19,157.179 h 76.05 l 44.46,-294.074 h -76.45 l -21.44,169.27 h -0.79 l -70.58,-169.27 h -30.43 l -67.47,169.27 h -0.78 l -24.57,-169.27 h -76.05 l 49.92,294.074"
         style="fill:#ffffff;fill-opacity:1;fill-rule:nonzero;stroke:none"
         id="path42" />
      <path
         d="M 1673.8,312.117 V 262.98 h 86.19 v -64.738 h -86.19 v -50.703 h 90.86 V 82.793 h -167.31 v 294.074 h 167.31 v -64.75 h -90.86"
         style="fill:#ffffff;fill-opacity:1;fill-rule:nonzero;stroke:none"
         id="path44" />
      <path
         d="m 1885.44,147.539 h 17.16 c 45.63,0 84.64,24.961 84.64,82.285 0,52.656 -34.72,82.293 -83.86,82.293 h -17.94 z m -76.45,229.328 h 108.42 c 81.92,0 149.38,-64.355 149.38,-147.043 0,-82.676 -67.85,-147.031 -149.38,-147.031 h -108.42 v 294.074"
         style="fill:#ffffff;fill-opacity:1;fill-rule:nonzero;stroke:none"
         id="path46" />
      <path
         d="M 2175.05,312.117 V 262.98 h 86.19 v -64.738 h -86.19 v -50.703 h 90.88 V 82.793 H 2098.6 v 294.074 h 167.33 v -64.75 h -90.88"
         style="fill:#ffffff;fill-opacity:1;fill-rule:nonzero;stroke:none"
         id="path48" />
      <path
         d="m 2386.71,147.539 h 91.64 V 82.793 h -168.09 v 294.074 h 76.45 V 147.539"
         style="fill:#ffffff;fill-opacity:1;fill-rule:nonzero;stroke:none"
         id="path50" />
      <path
         d="m 2666.13,301.203 c -14.03,11.699 -31.98,19.5 -50.69,19.5 -14.04,0 -32.77,-8.191 -32.77,-24.57 0,-17.168 20.67,-23.789 33.93,-28.086 l 19.5,-5.848 c 40.96,-12.09 72.54,-32.765 72.54,-80.344 0,-29.246 -7.01,-59.277 -30.42,-79.167 -23.01,-19.5044 -53.82,-27.6958 -83.46,-27.6958 -37.05,0 -73.32,12.4805 -103.35,33.5428 l 32.76,61.621 c 19.11,-16.777 41.73,-30.418 67.86,-30.418 17.94,0 37.05,8.973 37.05,29.637 0,21.445 -30.03,28.867 -46.41,33.547 -47.97,13.641 -79.55,26.121 -79.55,83.074 0,59.668 42.5,98.672 101.39,98.672 29.64,0 65.91,-9.363 92.04,-24.18 l -30.42,-59.285"
         style="fill:#ffffff;fill-opacity:1;fill-rule:nonzero;stroke:none"
         id="path52" />
      <path
         d="m 2950.18,278.184 c -15.6,21.074 -40.95,32.382 -67.08,32.382 -46.81,0 -78.4,-35.886 -78.4,-81.523 0,-46.406 31.98,-79.941 79.57,-79.941 24.96,0 49.92,12.089 65.91,31.191 V 88.6445 c -25.36,-7.8047 -43.69,-13.6523 -67.47,-13.6523 -40.96,0 -79.97,15.6055 -110.38,43.2888 -32.38,29.258 -47.19,67.481 -47.19,111.153 0,40.175 15.2,78.789 43.29,107.644 28.86,29.641 70.58,47.59 111.93,47.59 24.57,0 47.19,-5.469 69.82,-14.824 v -91.66"
         style="fill:#ffffff;fill-opacity:1;fill-rule:nonzero;stroke:none"
         id="path54" />
      <path
         d="M 3071.49,312.117 V 262.98 h 86.2 v -64.738 h -86.2 v -50.703 h 90.87 V 82.793 h -167.31 v 294.074 h 167.31 v -64.75 h -90.87"
         style="fill:#ffffff;fill-opacity:1;fill-rule:nonzero;stroke:none"
         id="path56" />
      <path
         d="m 3206.7,376.867 h 76.43 L 3423.15,197.07 h 0.79 v 179.797 h 76.44 V 82.793 h -76.44 L 3283.92,262.98 h -0.79 V 82.793 h -76.43 v 294.074"
         style="fill:#ffffff;fill-opacity:1;fill-rule:nonzero;stroke:none"
         id="path58" />
      <path
         d="m 3660.93,82.793 h -76.44 v 229.324 h -63.18 v 64.75 h 202.8 v -64.75 h -63.18 V 82.793"
         style="fill:#ffffff;fill-opacity:1;fill-rule:nonzero;stroke:none"
         id="path60" />
      <path
         d="M 3821.26,312.117 V 262.98 h 86.19 v -64.738 h -86.19 v -50.703 h 90.87 V 82.793 h -167.32 v 294.074 h 167.32 v -64.75 h -90.87"
         style="fill:#ffffff;fill-opacity:1;fill-rule:nonzero;stroke:none"
         id="path62" />
      <path
         d="m 4032.9,245.039 h 7.42 c 24.96,0 53.04,4.68 53.04,36.66 0,31.985 -28.08,36.66 -53.04,36.66 h -7.42 z M 4201.01,82.793 h -95.17 l -72.16,113.105 h -0.78 V 82.793 h -76.44 v 294.074 h 114.27 c 58.13,0 102.19,-27.687 102.19,-90.48 0,-40.567 -22.62,-75.664 -64.36,-83.086 l 92.45,-120.508"
         style="fill:#ffffff;fill-opacity:1;fill-rule:nonzero;stroke:none"
         id="path64" />
    </g>
  </g>
</svg>
