<svg xmlns="http://www.w3.org/2000/svg" width="702.107" height="123.507">
  <path d="M672.232 95.772h-4.217v16.25h4.217v-9.95h.047l7.728 9.95h4.224v-16.25h-4.224v9.92h-.035zm-4.337-12.588c0 2.81-2.068 4.847-4.59 4.847-2.524 0-4.584-2.036-4.584-4.847 0-2.235 2.06-4.286 4.584-4.286 2.522 0 4.59 2.051 4.59 4.286m4.394-.021c0-4.909-4.309-8.357-8.984-8.357-4.669 0-8.982 3.448-8.982 8.357 0 5.259 3.77 8.96 8.982 8.96 5.211 0 8.984-3.701 8.984-8.96m-14.196 15.846c1.379 0 2.932.253 2.932 2.029 0 1.761-1.553 2.022-2.932 2.022h-.408v-4.05zm1.68-3.237h-6.31v16.25h4.222v-6.253h.038l3.997 6.253h5.247l-5.103-6.65c2.304-.425 3.555-2.367 3.555-4.588 0-3.475-2.438-5.012-5.646-5.012m-17.381 10.196 1.743-5.163h.048l1.726 5.163zm-.521-10.196-6.246 16.25h4.484l1.118-2.832h5.813l1.064 2.832h4.504l-6.116-16.25zm6.438-4.182h4.227V75.348h-4.227zm-10.169-5.753h3.45c-.185 1.873-1.58 2.826-3.407 2.826-2.778 0-4.292-2.572-4.292-5.089 0-2.481 1.446-5.127 4.222-5.127 1.704 0 2.928 1.028 3.515 2.583l4.008-1.68c-1.399-3.036-3.992-4.544-7.33-4.544-5.231 0-8.803 3.461-8.803 8.755 0 5.102 3.544 8.563 8.658 8.563 2.712 0 5.102-.966 6.7-3.188 1.44-2.015 1.618-4.044 1.659-6.416h-8.38zm-8.401 9.935h-4.22v16.25h9.284v-3.58h-5.064zm-26.01 8.125c0 3.175-2.153 4.546-4.676 4.546h-.94V99.35h.98c2.719 0 4.636 1.64 4.636 4.547m-3.854-8.125h-5.988v16.25h5.988c4.505 0 8.245-3.559 8.245-8.125s-3.725-8.125-8.245-8.125M611.696 80.6c0 1.776-1.557 2.03-2.935 2.03h-.41v-4.06h.41c1.378 0 2.935.268 2.935 2.03m5.941 10.991-5.11-6.651c2.309-.418 3.564-2.352 3.564-4.6 0-3.47-2.442-4.999-5.646-4.999h-6.318v16.25h4.224v-6.253h.044l3.986 6.253zm.064 14.378h-3.516l1.748-5.163h.04zm6.694 6.054-6.11-16.25h-4.61l-6.244 16.25h4.47l1.126-2.832h5.813l1.056 2.832zm3.544-36.682h-9.236v16.25h9.236v-3.58h-5.019v-2.803h4.759v-3.565h-4.759V78.92h5.019zm51.745-46.352a11.29 11.29 0 0 0 2.987-3.811l-5.751-10.844V8.587l-5.127 2.954a17.884 17.884 0 0 0-3.209-.29c-6.675 0-12.465 3.73-15.417 9.225l-3.02 5.835-14.228.532a9.963 9.963 0 0 0-9.42 9.753l-.014 32.676h5.938c0-12.245 4.35-18.473 4.35-18.473 3.631.426 7.326.637 11.07.637 4.045 0 8.021-.252 11.93-.74l2.255 18.576h5.932c0-31.74 6.143-41.61 6.143-41.61zm6.51 62.602h4.227V75.34h-4.226v9.943h-.046l-7.726-9.943h-4.228v16.25h4.228v-9.948h.041zm9.213 14.378h-3.511l1.744-5.163h.041zm6.705 6.054-6.12-16.25h-4.61l-6.246 16.25h4.483l1.121-2.832h5.81l1.053 2.832h4.509M575.213 123.507h2.448V-.006h-2.448v123.513M276.87 41.436h2.287c6.086 0 11.286-3.328 11.286-10.974 0-7.02-4.63-10.97-11.182-10.97h-2.39zM266.68 10.858h14.456c10.92 0 19.916 8.58 19.916 19.604 0 11.026-9.048 19.606-19.916 19.606h-14.456v-39.21M320.452 22.975h-.104l-4.212 12.48h8.476zm-7.125 20.28-2.703 6.813h-10.819l15.082-39.21h11.13l14.768 39.21h-10.869l-2.548-6.813h-14.041M353.543 41.436h12.221v8.632h-22.413v-39.21h10.192v30.578M387.333 22.975h-.104l-4.212 12.48h8.476zm-7.124 20.28-2.705 6.813h-10.815l15.08-39.21h11.128l14.768 39.21H396.8l-2.55-6.813h-14.04M420.425 28.435h.988c3.328 0 7.072-.624 7.072-4.888s-3.744-4.888-7.072-4.888h-.988zm22.414 21.633h-12.69l-9.62-15.081h-.104v15.08h-10.192V10.859h15.238c7.746 0 13.624 3.693 13.624 12.065 0 5.408-3.016 10.089-8.58 11.076l12.324 16.069M445.176 10.858h10.192l18.67 23.974h.103V10.858h10.194v39.21H474.14l-18.669-24.025h-.104v24.025h-10.192v-39.21M507.545 22.975h-.104l-4.212 12.48h8.476zm-7.125 20.28-2.703 6.813H486.9l15.08-39.21h11.13l14.769 39.21h-10.87l-2.546-6.813H500.42M552.384 20.947c-1.87-1.56-4.263-2.6-6.76-2.6-1.872 0-4.368 1.092-4.368 3.275 0 2.288 2.756 3.174 4.524 3.744l2.601.781c5.46 1.612 9.672 4.368 9.672 10.712 0 3.9-.936 7.906-4.057 10.556-3.068 2.6-7.175 3.693-11.128 3.693-4.94 0-9.776-1.664-13.781-4.473l4.37-8.216c2.547 2.236 5.563 4.056 9.047 4.056 2.393 0 4.94-1.195 4.94-3.952 0-2.86-4.003-3.847-6.188-4.472-6.395-1.82-10.61-3.484-10.61-11.076 0-7.956 5.67-13.156 13.522-13.156 3.953 0 8.79 1.248 12.273 3.224l-4.057 7.904M24.909 88.391V73.258h10.193v39.21H24.909V96.4H10.192v16.068H0v-39.21h10.192V88.39H24.91M60.486 73.258v26.47c0 8.268-4.316 13.78-13 13.78-4.368 0-7.749-2.184-10.088-5.772l5.876-6.19c1.144 1.56 2.756 3.329 4.108 3.329 3.016 0 2.912-3.587 2.912-5.772V73.258h10.192M93.606 64.99a5.071 5.071 0 0 1-5.096 5.096c-2.86 0-5.149-2.236-5.149-5.097 0-2.808 2.288-5.096 5.149-5.096a5.105 5.105 0 0 1 5.096 5.096zM81.958 85.373h-.104L77.64 97.856h8.477zm-1.664-20.385a5.071 5.071 0 0 1-5.097 5.097c-2.86 0-5.148-2.236-5.148-5.097 0-2.808 2.288-5.096 5.148-5.096a5.105 5.105 0 0 1 5.097 5.096zm-5.46 40.666-2.704 6.813H61.313l15.08-39.21h11.128l14.77 39.21H91.42l-2.547-6.813h-14.04M115.05 103.835h12.22v8.633h-22.413v-39.21h10.193v30.577M140.05 91.251h1.717c3.693 0 7.333 0 7.333-4.785 0-4.94-3.38-4.992-7.333-4.992h-1.716zm-10.192-17.993h15.602c8.424 0 14.247 3.9 14.247 12.897 0 9.255-4.992 13.313-13.883 13.313h-5.773v13h-10.193v-39.21M166.425 73.258h10.038l7.954 20.957 8.426-20.957h10.14l5.928 39.21h-10.194l-2.858-22.57h-.106l-9.41 22.57h-4.058l-8.996-22.57h-.104l-3.276 22.57h-10.14l6.656-39.21M223.173 81.891v6.552h11.492v8.631h-11.492v6.76h12.115v8.634H212.98v-39.21h22.308v8.633h-12.115M251.392 103.835h2.288c6.084 0 11.285-3.328 11.285-10.972 0-7.02-4.629-10.972-11.181-10.972h-2.392zm-10.193-30.577h14.456c10.922 0 19.917 8.58 19.917 19.605 0 11.024-9.047 19.605-19.917 19.605h-14.456v-39.21M290.007 81.891v6.552h11.492v8.631h-11.492v6.76h12.117v8.634h-22.31v-39.21h22.31v8.633h-12.117M318.228 103.835h12.219v8.633h-22.412v-39.21h10.193v30.577M355.484 83.346c-1.87-1.56-4.264-2.6-6.759-2.6-1.872 0-4.369 1.092-4.369 3.276 0 2.29 2.756 3.172 4.524 3.745l2.6.78c5.461 1.612 9.672 4.368 9.672 10.712 0 3.9-.935 7.904-4.056 10.556-3.068 2.6-7.176 3.693-11.128 3.693-4.94 0-9.776-1.664-13.78-4.473l4.368-8.216c2.548 2.237 5.564 4.056 9.048 4.056 2.392 0 4.94-1.196 4.94-3.952 0-2.859-4.004-3.849-6.188-4.473-6.396-1.818-10.607-3.482-10.607-11.076 0-7.956 5.667-13.156 13.519-13.156 3.952 0 8.788 1.248 12.272 3.224l-4.056 7.904M393.357 86.415c-2.08-2.81-5.46-4.317-8.944-4.317-6.241 0-10.453 4.785-10.453 10.87 0 6.187 4.264 10.658 10.61 10.658 3.327 0 6.655-1.611 8.787-4.158v12.22c-3.381 1.04-5.825 1.82-8.996 1.82-5.461 0-10.662-2.081-14.717-5.772-4.317-3.901-6.292-8.998-6.292-14.82 0-5.357 2.027-10.506 5.772-14.353 3.848-3.952 9.41-6.345 14.924-6.345 3.276 0 6.292.729 9.31 1.976v12.221M409.532 81.891v6.552h11.493v8.631h-11.493v6.76h12.116v8.634H399.34v-39.21h22.308v8.633h-12.116M427.56 73.258h10.19l18.67 23.973h.105V73.258h10.192v39.21h-10.192l-18.669-24.025h-.105v24.025H427.56v-39.21M488.124 112.468h-10.192V81.89h-8.424v-8.633h27.04v8.633h-8.424v30.577M509.501 81.891v6.552h11.492v8.631h-11.492v6.76h12.116v8.634h-22.309v-39.21h22.31v8.633H509.5M537.72 90.835h.99c3.327 0 7.071-.624 7.071-4.888 0-4.265-3.744-4.888-7.072-4.888h-.989zm22.415 21.633h-12.69l-9.621-15.081h-.104v15.08h-10.192v-39.21h15.236c7.75 0 13.625 3.692 13.625 12.065 0 5.409-3.016 10.088-8.581 11.078l12.327 16.068"/>
</svg>